<?xml version="1.0" encoding="UTF-8" standalone="no"?>
<!DOCTYPE svg PUBLIC "-//W3C//DTD SVG 1.1//EN" "http://www.w3.org/Graphics/SVG/1.1/DTD/svg11.dtd">
<svg width="100%" height="100%" viewBox="0 0 2048 1536" version="1.1" xmlns="http://www.w3.org/2000/svg" xmlns:xlink="http://www.w3.org/1999/xlink" xml:space="preserve" xmlns:serif="http://www.serif.com/" style="fill-rule:evenodd;clip-rule:evenodd;stroke-linecap:round;stroke-linejoin:round;stroke-miterlimit:1.5;">
    <g>
        <g>
            <g>
                <path d="M736.347,297.285c-11.02,7.715 -21.829,19.579 -22.488,41.183c-1.429,46.863 41.029,48.38 53.592,45.457c12.727,-2.962 18.008,-16.08 18.008,-16.08c0,-0 8.662,19.14 27.947,11.134c18.371,-7.627 7.522,-26.221 -2.072,-38.388c-11.254,-14.271 -23.44,-24.737 -25.114,-31.166c-2.528,-9.704 -4.545,-11.947 -8.532,-14.637c-4.899,-3.304 -15.628,-0.3 -15.628,-0.3c0,0 -16.926,-3.354 -25.713,2.797Zm19.334,3.723c-0,0 -18.81,4.292 -19.324,27.191c-0.519,23.076 20.185,23.854 20.185,23.854c-0,-0 5.916,-23.275 0.322,-29.237c-7.818,-8.333 -1.183,-21.808 -1.183,-21.808Z" style="stroke:#fff;stroke-width:1px;"/>
                <path d="M655.001,322.807c-3.562,58.404 24.258,138.777 121.877,132.073c120.144,-8.251 119.541,-158.305 78.26,-208.978c-49.197,-60.389 -110.246,-36.028 -129.757,-29.049c-23.579,8.434 -24.945,22.767 -24.945,22.767c0,0 -41.759,22.912 -45.435,83.187Zm43.474,-67.411c-26.936,38.191 -8.559,105.804 6.289,130.81c22.567,38.005 99.871,52.542 127.138,-18.361c19.483,-50.662 -2.814,-93.258 -23.074,-107.138c-29.12,-19.948 -68.47,-7.368 -77.516,-0.622c-6.801,5.072 -10.536,8.127 -18.461,7.121c-6.273,-0.797 -14.376,-11.81 -14.376,-11.81Z" style="stroke:#fff;stroke-width:1px;"/>
                <path d="M527.255,270.722c-54.249,5.767 -59.922,46.643 -36.073,107.718l24.357,39.573c-11.354,14.715 -18.891,18.406 -25.882,20.521c5.712,5.454 17.929,4.23 37.289,-4.328c37.45,37.681 72.279,38.138 80.103,16.665c2.8,-7.687 2.137,-24.983 -14.35,-24.852c-27.79,0.221 -33.392,-24.169 -33.392,-24.169c0,0 25.162,-32.951 23.729,-71.71c-1.863,-50.397 -36.742,-61.443 -55.781,-59.418Zm-0.2,39.72c-20.11,2.029 -11.604,34.218 11.98,67.998c0,-0 6.701,-27.964 6.731,-39.472c0.027,-10.139 -0.46,-30.368 -18.711,-28.526Z" style="stroke:#fff;stroke-width:1px;"/>
                <path d="M398.08,317.365c-28.158,18.099 11.903,88.408 8.297,106.9c-2.765,14.178 -10.812,12.371 -17.136,1.229c-2.583,11.974 3.479,25.417 27.017,13.942c-0,0 16.487,20.996 38.276,19.061c10.39,-0.923 32.423,-14.492 18.177,-34.737c-9.72,-13.814 -14.922,0.494 -24.983,-9.712c-29.667,-30.094 -14.789,-119.088 -49.648,-96.683Z" style="stroke:#fff;stroke-width:1px;"/>
                <path d="M407.828,306.232c9.804,-0.811 23.406,-10.666 20.876,-31.497c-5.364,-44.163 -67.878,-20.51 -61.032,8.445c4.174,17.655 19.322,24.777 40.156,23.052Z" style="stroke:#fff;stroke-width:1px;"/>
                <path d="M34.889,370.104c12.668,-23.744 39.175,-50.342 48.047,-39.841c12.839,15.194 -23.711,100.471 -19.175,112.114c11.436,29.363 42.951,21.09 46.984,-37.867c1.396,-20.4 22.3,-54.034 22.3,-54.034c-9.795,72.254 -3.161,105.45 17.913,104.318c33.823,-10.146 2.229,-43.809 44.276,-108.2c-11.887,81.509 13.753,125.796 41.477,102.518c21.389,-17.959 -1.713,-24.187 -5.088,-42.603c-6.015,-32.815 8.689,-101.245 -23.23,-107.436c-18.853,-3.657 -43.061,34.532 -43.061,34.532c-0,-0 -0.868,-34.067 -20.245,-35.535c-17.752,-1.345 -29.929,28.657 -29.929,28.657c-0,0 -7.549,-27.377 -27.222,-25.064c-37.907,4.456 -63.949,39.378 -53.047,68.441Z" style="stroke:#fff;stroke-width:1px;"/>
                <path d="M306.26,329.005c-35.316,-28.262 -79.391,32.375 -51.449,101.029c14.804,36.374 51.787,39.156 76.084,0.971c0,0 26.105,24.786 41.42,10.639c9.354,-8.641 6.6,-20.189 3.128,-27.487c-6.213,-13.059 -14.965,-0.782 -18.139,-16.895c-2.445,-12.412 -3.549,-35.739 -15.433,-50.944c-7.496,-9.591 5.743,-22.714 -13.005,-27.957c-17.992,-5.031 -22.606,10.644 -22.606,10.644Zm-11.826,0.957c-28.873,5.785 -19.495,55.944 -12.767,75.29c7.91,22.747 17.708,19.091 22.227,-26.812c1.301,-13.218 3.373,-26.324 1.992,-33.247c-3.207,-16.08 -11.452,-15.231 -11.452,-15.231Z" style="stroke:#fff;stroke-width:1px;"/>
            </g>
            <g>
                <path d="M123.561,476.786c0,-0 -13.489,-16.831 -35.066,-15.692c-29.962,1.582 -75.645,43.202 -37.094,96.557c16.487,22.819 46.296,18.71 60.924,8.106c4.244,12.972 6.983,36.963 -29.392,53.777c-34.066,15.745 -55.323,-20.615 -68.585,6.845c-19.511,40.397 84.092,66.263 130.856,-11.295c14.277,-23.678 -2.928,-95.628 -2.928,-95.628c0,0 10.375,14.728 16.295,14.446c1.344,56.453 88.506,68.754 99.478,-4.453c7.77,-51.844 -35.522,-70.478 -71.974,-63.865c-27.174,4.929 -40.869,34.979 -40.869,34.979c0,0 -11.214,-25.258 -21.645,-23.777Zm70.598,25.399c-12.906,3.122 -10.622,8.766 -14.608,19.99c-1.783,5.022 -3.897,3.712 -4.07,7.886c-0.196,4.75 12.764,30.153 33.374,18.659c10.013,-6.718 14.986,-14.628 13.279,-30.482c-1.483,-13.774 -11.473,-20.045 -27.975,-16.053Zm-79.765,-21.765c-26.317,-10.246 -42.043,4.871 -43.463,34.366c-0.363,7.52 1.343,14.3 6.476,18.52c5.544,4.558 10.911,6.436 24.811,-13.85c5.886,-8.589 4.866,-17.624 4.841,-25.196c-0.018,-5.221 7.335,-13.84 7.335,-13.84Z" style="fill:#7b7b7b;stroke:#fff;stroke-width:1px;"/>
                <path d="M292.353,575.368c-25.343,-12.251 -40.534,-80.008 -11.948,-114.329c13.515,-16.227 50.426,-13.853 82.115,10.535c45.426,34.96 41.686,71.805 37.374,81.145c-9.339,20.231 -32.553,20.041 -39.061,4.232c-3.209,-7.794 1.429,-17.076 1.79,-19.127c2.557,-14.544 -37.765,-54.615 -54.819,-50.378c-23.263,5.78 -5.979,52.332 5.64,68.725c10.059,14.191 -11.28,23.939 -21.091,19.197Z" style="fill:#7b7b7b;stroke:#fff;stroke-width:1px;"/>
                <path d="M385.15,642.48c12.336,-14.782 24.152,2.934 47.719,-1.248c16.825,-2.985 62.369,-7.514 49.906,-95.733c-0,0 -30.555,30.619 -52.939,6.177c-25.091,-27.397 -6.417,-78.061 -6.417,-78.061c0,-0 14.267,58.682 25.918,58.237c18.352,-0.701 18.64,-45.288 32.519,-47.618c27.049,-4.542 50.845,72.311 30.205,142.679c-7.942,27.075 -51.66,55.436 -75.46,54.846c-42.926,-1.065 -67.953,-19.503 -51.451,-39.279Z" style="fill:#7b7b7b;stroke:#fff;stroke-width:1px;"/>
                <path d="M540.199,473.615c-4.585,-2.192 -34.59,69.814 -1.225,93.496c23.791,16.888 61.991,-19.674 61.991,-19.674c2.298,34.358 37.906,115.114 -42.601,99.357c-11.312,-2.214 -39.518,7.187 -25.301,28.625c23.839,34.285 101.802,2.613 111.161,-22.841c11.929,-32.447 5.352,-122.525 -31.469,-168.66c-4.875,-6.107 -26.565,-13.172 -29.234,6.287c-4.549,33.168 -22.348,53.995 -34.644,49.542c-7.025,-2.543 -11.421,-35.88 -8.678,-66.132Z" style="fill:#7b7b7b;stroke:#fff;stroke-width:1px;"/>
                <path d="M649.648,413.928c-16.143,2.655 -45.709,22.416 -27.555,39.552c18.162,17.143 31.169,20.997 51.01,4.49c17.578,-14.624 4.082,-48.57 -23.455,-44.042Z" style="fill:#7b7b7b;stroke:#fff;stroke-width:1px;"/>
                <path d="M665.338,490.205c-0,-0 -6.028,55.952 -6.374,70.381c-0.501,20.94 23.688,20.563 27.42,9.622c4.604,-13.502 -10.132,-63.068 -21.046,-80.003Z" style="fill:#7b7b7b;stroke:#fff;stroke-width:1px;"/>
                <path d="M745.433,539.445c-23.189,-4.324 -38.906,23.6 -24.882,38.163c9.678,10.05 32.668,6.938 38.098,-2.24c9.361,-15.823 -3.517,-34.114 -13.216,-35.923Z" style="fill:#7b7b7b;stroke:#fff;stroke-width:1px;"/>
                <path d="M826.493,490.205c15.195,-9.987 12.019,-53.54 -22.003,-44.474c-32.058,8.543 -46.835,47.563 -42.592,73.725c10.071,62.093 42.777,90.14 77.871,75.052c20.153,-8.664 19.572,-39.142 9.227,-44.389c-15.065,-7.642 -28.214,6.489 -28.214,6.489c-0,0 -14.282,0.193 -25.475,-42.447c-8.55,-32.57 3.805,-43.253 16.425,-50.964c13.348,-8.156 19.532,7.563 14.761,27.008Z" style="fill:#7b7b7b;stroke:#fff;stroke-width:1px;"/>
                <path d="M859.602,468.536c-30.602,15.705 -3.549,46.031 -3.549,46.031c0,-0 -12.248,47.517 20.636,58.209c40.543,13.182 54.703,-27.833 57.784,-45.865c3.087,-18.065 0.739,-39.906 -11.749,-49.948c-20.24,-16.275 -50.075,-15.123 -63.122,-8.427Zm19.534,31.393c-2.479,7.668 -4.037,11.29 -10.451,13.321c2.844,26.511 14.075,37.674 22.604,32.249c8.946,-5.688 14.093,-32.829 10.044,-41.581c-3.539,-7.647 -11.598,-3.004 -22.197,-3.989Z" style="fill:#7b7b7b;stroke:#fff;stroke-width:1px;"/>
                <path d="M951.53,476.285c3.832,27.375 2.083,46.11 -4.148,62.71c-7.711,20.546 1.427,45.024 20.45,42.424c9.315,-1.274 16.13,-8.578 13.771,-30.394c-1.525,-14.098 7.121,-36.514 17.225,-48.84c0.947,8.122 4.13,18.986 4.129,28.999c-0.002,12.846 -3.207,24.818 -1.428,33.413c2.133,10.297 5.854,17.129 13.374,19.239c10.819,3.035 26.407,-2.82 25.847,-20.469c-0.422,-13.322 0.61,-28.046 3.175,-40.24c2.41,-11.454 13.926,-35.707 13.926,-35.707c-1.338,30.425 29.603,161.845 76.121,111.096c7.654,-14.384 11.269,-37.218 -20.178,-34.451c-0,0 -11.476,-24.345 -15.719,-50.56c-5.036,-31.121 -13.585,-59.933 -38.587,-60.526c-12.246,-0.29 -31.697,18.595 -31.697,18.595c0,-0 -3.592,-26.023 -25.765,-21.277c-22.007,4.71 -36.262,39.908 -36.262,39.908l-14.234,-13.92Z" style="fill:#7b7b7b;stroke:#fff;stroke-width:1px;"/>
            </g>
        </g>
        <g>
            <path d="M42.529,270.951l6.225,-130.875l7.508,0.357l-0.873,18.362c1.859,-6.335 4.172,-11.391 6.938,-15.171c2.766,-3.78 5.797,-5.591 9.093,-5.435c3.668,0.175 6.581,2.331 8.736,6.468c2.156,4.137 3.544,9.844 4.164,17.12c4.644,-15.095 10.107,-22.493 16.387,-22.195c4.912,0.234 8.519,4.008 10.819,11.322c2.301,7.315 3.096,18.448 2.385,33.401l-4.273,89.838l-8.348,-0.397l3.921,-82.444c0.422,-8.873 0.454,-15.274 0.096,-19.202c-0.359,-3.928 -1.197,-7.118 -2.513,-9.568c-1.317,-2.451 -2.939,-3.722 -4.867,-3.814c-3.482,-0.165 -6.519,2.757 -9.111,8.769c-2.592,6.011 -4.208,15.753 -4.849,29.227l-3.616,76.036l-8.395,-0.399l4.045,-85.032c0.468,-9.859 0.136,-17.286 -0.997,-22.28c-1.134,-4.995 -3.255,-7.566 -6.364,-7.714c-2.363,-0.112 -4.625,1.427 -6.787,4.618c-2.162,3.191 -3.844,7.928 -5.046,14.211c-1.203,6.283 -2.087,15.381 -2.654,27.294l-3.229,67.902l-8.395,-0.399Z" style="fill:#7e7e7e;fill-rule:nonzero;"/>
            <path d="M149.396,270.636l-4.331,-15.463c3.482,0.437 6.46,0.448 8.933,0.032c3.372,-0.566 5.965,-1.64 7.779,-3.222c1.815,-1.583 3.18,-3.6 4.097,-6.054c0.674,-1.837 1.52,-6.259 2.539,-13.264c0.125,-0.979 0.345,-2.421 0.66,-4.326l-50.623,-93.433l16.353,-2.747l28.255,54.174c3.637,6.862 7.084,14.139 10.341,21.831c0.448,-7.995 1.265,-15.861 2.45,-23.596l9.448,-60.89l15.173,-2.549l-17.153,106.35c-1.827,11.484 -3.408,19.446 -4.742,23.886c-1.769,5.981 -4.179,10.553 -7.23,13.717c-3.052,3.163 -6.994,5.15 -11.827,5.962c-2.922,0.491 -6.296,0.355 -10.122,-0.408Z" style="fill:#7e7e7e;fill-rule:nonzero;"/>
            <path d="M370.284,206.707l57.204,-1.432c-5.497,14.182 -15.61,25.766 -30.338,34.752c-14.727,8.986 -33.841,15.038 -57.342,18.157c-37.198,4.935 -65.758,0.819 -85.679,-12.348c-15.752,-10.577 -24.887,-25.35 -27.404,-44.321c-3.007,-22.663 3.904,-41.64 20.733,-56.932c16.829,-15.293 39.411,-24.818 67.746,-28.578c31.826,-4.223 57.829,-0.838 78.01,10.156c20.18,10.993 31.706,30.406 34.579,58.24l-141.808,18.816c1.826,10.677 7.5,18.419 17.02,23.227c9.521,4.808 20.794,6.348 33.82,4.619c8.863,-1.176 16.111,-3.71 21.744,-7.602c5.633,-3.892 9.538,-9.477 11.715,-16.754Zm-1.629,-36.996c-1.792,-10.42 -7.079,-17.82 -15.859,-22.202c-8.781,-4.382 -18.946,-5.807 -30.494,-4.274c-12.355,1.639 -22.179,5.869 -29.473,12.689c-7.295,6.821 -10.22,15.158 -8.776,25.012l84.602,-11.225Z" style="fill:#7e7e7e;fill-rule:nonzero;"/>
            <path d="M431.106,113.379l20.857,-2.173l1.923,18.464c5.968,-15.124 14.106,-23.223 24.413,-24.296c5.476,-0.571 10.413,0.717 14.811,3.863c4.398,3.146 8.261,8.193 11.589,15.14c3.007,-7.607 6.498,-13.42 10.475,-17.438c3.978,-4.019 8.436,-6.285 13.375,-6.8c6.281,-0.654 11.806,0.809 16.574,4.388c4.769,3.579 8.633,9.162 11.594,16.749c2.158,5.61 3.91,14.867 5.254,27.771l9.006,86.463l-22.628,2.357l-8.052,-77.295c-1.397,-13.413 -3.077,-21.991 -5.041,-25.733c-2.624,-4.876 -6.11,-7.087 -10.459,-6.634c-3.167,0.33 -5.988,2.168 -8.461,5.515c-2.473,3.347 -4.02,8.035 -4.64,14.063c-0.62,6.029 -0.267,15.41 1.059,28.144l6.765,64.943l-22.628,2.357l-7.72,-74.111c-1.371,-13.159 -2.658,-21.606 -3.861,-25.342c-1.203,-3.736 -2.747,-6.45 -4.633,-8.142c-1.886,-1.691 -4.278,-2.386 -7.177,-2.084c-3.49,0.364 -6.475,2.176 -8.958,5.438c-2.482,3.262 -4.035,7.758 -4.659,13.486c-0.624,5.729 -0.26,15.088 1.093,28.076l6.844,65.707l-22.628,2.357l-14.087,-135.233Z" style="fill:#7e7e7e;fill-rule:nonzero;"/>
            <path d="M615.984,117.413l-30.172,6.205c-3.732,-15.919 -3.503,-29.103 0.686,-39.552c4.189,-10.45 13.626,-19.11 28.309,-25.982c13.336,-6.241 24.247,-8.795 32.733,-7.662c8.485,1.133 15.567,4.3 21.244,9.501c5.676,5.201 12.544,16.412 20.604,33.632l21.348,46.447c6.165,13.174 11.191,22.666 15.078,28.476c3.886,5.809 8.815,11.676 14.786,17.599l-29.579,13.844c-2.014,-2.27 -4.799,-5.727 -8.356,-10.371c-1.598,-2.121 -2.679,-3.507 -3.244,-4.16c-2.025,8.977 -5.175,16.473 -9.45,22.489c-4.275,6.016 -9.711,10.567 -16.308,13.655c-11.634,5.444 -22.762,5.548 -33.385,0.31c-10.623,-5.238 -18.929,-14.256 -24.918,-27.053c-3.964,-8.469 -5.973,-16.735 -6.027,-24.796c-0.055,-8.062 1.841,-15.144 5.687,-21.245c3.846,-6.102 10.33,-12.893 19.454,-20.375c12.345,-10.022 20.508,-17.8 24.49,-23.334l-1.85,-3.952c-3.567,-7.623 -7.529,-12.393 -11.886,-14.311c-4.357,-1.919 -10.472,-1.036 -18.346,2.649c-5.32,2.49 -8.82,5.82 -10.5,9.99c-1.68,4.171 -1.813,10.169 -0.398,17.996Zm55.068,13.459c-3.037,3.486 -8.155,8.348 -15.354,14.584c-7.198,6.237 -11.546,11.082 -13.042,14.536c-2.184,5.495 -1.955,11.066 0.687,16.712c2.599,5.552 6.405,9.621 11.42,12.207c5.015,2.585 9.934,2.749 14.758,0.492c5.391,-2.523 9.433,-7.282 12.125,-14.278c1.944,-5.269 2.273,-10.757 0.985,-16.464c-0.805,-3.752 -3.431,-10.381 -7.879,-19.885l-3.7,-7.904Z" style="fill:#7e7e7e;fill-rule:nonzero;"/>
            <path d="M748.213,45.538l-0.252,-30.236l45.218,-0.377l0.252,30.236l-45.218,0.377Zm1.171,140.25l-1.031,-123.503l45.218,-0.378l1.03,123.504l-45.217,0.377Z" style="fill:#7e7e7e;fill-rule:nonzero;"/>
            <path d="M802.512,187.07l60.592,-174.97l43.86,15.188l-60.592,174.971l-43.86,-15.189Z" style="fill:#7e7e7e;fill-rule:nonzero;"/>
            <path d="M947.217,167.377l14.4,-9.145l21.402,33.704l-14.4,9.145l-21.402,-33.704Zm-87.586,55.616l73.881,-46.914l21.402,33.704l-73.881,46.914l-21.402,-33.704Z" style="fill:#7e7e7e;fill-rule:nonzero;"/>
            <path d="M912.35,243.646l7.109,9.955c-8.185,3.511 -14.025,7.458 -17.521,11.841c-3.496,4.383 -4.366,9.129 -2.61,14.237c1.771,5.15 5.066,8.289 9.887,9.418c4.821,1.129 9.9,0.776 15.238,-1.059c4.788,-1.646 8.177,-4.042 10.168,-7.188c1.355,-2.184 2.436,-6.828 3.241,-13.932c1.098,-9.573 2.533,-16.44 4.305,-20.602c1.773,-4.162 4.909,-7.934 9.408,-11.315c4.499,-3.381 9.81,-6.125 15.932,-8.23c5.573,-1.916 10.966,-3.015 16.179,-3.298c5.214,-0.283 9.79,0.198 13.729,1.444c3.033,0.908 5.911,2.577 8.634,5.008c2.723,2.431 4.677,5.37 5.862,8.817c1.785,5.191 1.939,10.235 0.463,15.131c-1.477,4.896 -4.307,9.109 -8.492,12.637c-4.185,3.529 -10.199,7.036 -18.041,10.522l-6.595,-9.992c6.265,-2.712 10.792,-5.882 13.582,-9.512c2.79,-3.629 3.435,-7.624 1.936,-11.985c-1.771,-5.15 -4.644,-8.272 -8.619,-9.367c-3.975,-1.094 -8.121,-0.9 -12.438,0.585c-2.748,0.944 -5.063,2.251 -6.947,3.921c-1.962,1.696 -3.353,3.777 -4.174,6.241c-0.399,1.391 -1.069,5.314 -2.01,11.768c-1.276,9.308 -2.651,15.969 -4.124,19.982c-1.473,4.013 -4.336,7.748 -8.588,11.208c-4.253,3.459 -9.99,6.43 -17.212,8.913c-7.064,2.429 -14.092,3.626 -21.082,3.591c-6.99,-0.035 -12.899,-1.521 -17.727,-4.459c-4.828,-2.937 -8.135,-7.002 -9.92,-12.193c-2.955,-8.597 -1.833,-16.309 3.369,-23.136c5.201,-6.827 14.22,-13.144 27.058,-18.951Z" style="fill:#7e7e7e;fill-rule:nonzero;"/>
        </g>
    </g>
</svg>
